<?xml version="1.0" encoding="UTF-8"?>
<svg width="20px" height="12px" viewBox="0 0 20 12" version="1.1" xmlns="http://www.w3.org/2000/svg" xmlns:xlink="http://www.w3.org/1999/xlink">
    <title>758BF48F-FBA2-4C0D-B9C1-1EC7BA7DD647</title>
    <g id="Desktop" stroke="none" stroke-width="1" fill="none" fill-rule="evenodd">
        <g id="Homepage-(RZ)" transform="translate(-961.000000, -2422.000000)" fill="#FFFFFF" fill-rule="nonzero">
            <path d="M971,2422 C975.497049,2422 979.181117,2425.80671 980.331719,2427.13751 L980.699761,2427.58272 L981,2427.97177 L980.629335,2428.45437 C980.028867,2429.20997 976.021833,2434 971,2434 C965.978167,2434 961.971133,2429.20997 961.370665,2428.45437 L961,2427.97177 L961.414336,2427.43956 C962.140509,2426.54788 966.084621,2422 971,2422 Z M971,2423.29793 C967.095573,2423.29793 963.718717,2426.78838 962.683788,2427.97534 L962.971942,2428.29938 C964.256398,2429.70685 967.411448,2432.70207 971,2432.70207 C974.90509,2432.70207 978.283271,2429.173 979.316212,2427.97631 L979.133205,2427.77064 C977.921389,2426.4318 974.690455,2423.29793 971,2423.29793 Z M971,2424.87437 C972.760359,2424.87437 974.192162,2426.27633 974.192162,2428 C974.192162,2429.72367 972.760359,2431.12563 971,2431.12563 C969.239641,2431.12563 967.807838,2429.72367 967.807838,2428 C967.807838,2426.27633 969.239641,2424.87437 971,2424.87437 Z M971.044444,2426.26477 C970.062605,2426.26477 969.266667,2427.04412 969.266667,2428.0055 C969.266667,2428.96687 970.062605,2429.74622 971.044444,2429.74622 C972.026284,2429.74622 972.822222,2428.96687 972.822222,2428.0055 C972.822222,2427.04412 972.026284,2426.26477 971.044444,2426.26477 Z" id="icon-view"></path>
        </g>
    </g>
</svg>